<svg width="40" height="40" viewBox="0 0 40 40" fill="none" xmlns="http://www.w3.org/2000/svg">
<path d="M0 20C0 8.95431 8.95431 0 20 0C31.0457 0 40 8.95431 40 20C40 31.0457 31.0457 40 20 40C8.95431 40 0 31.0457 0 20Z" fill="#CCD8F5"/>
<path d="M15.3649 27V12.4545H20.2797C21.416 12.4545 22.3488 12.6487 23.0779 13.0369C23.8071 13.4205 24.3469 13.9484 24.6973 14.6207C25.0476 15.2931 25.2228 16.0578 25.2228 16.9148C25.2228 17.7718 25.0476 18.5317 24.6973 19.1946C24.3469 19.8575 23.8095 20.3783 23.085 20.7571C22.3606 21.1312 21.435 21.3182 20.3081 21.3182H16.3308V19.7273H20.2512C21.0278 19.7273 21.6528 19.6136 22.1262 19.3864C22.6045 19.1591 22.9501 18.8371 23.1632 18.4205C23.381 17.9991 23.4899 17.4972 23.4899 16.9148C23.4899 16.3324 23.381 15.8234 23.1632 15.3878C22.9454 14.9522 22.5974 14.616 22.1191 14.3793C21.6409 14.1378 21.0088 14.017 20.2228 14.017H17.1262V27H15.3649ZM22.2115 20.4659L25.791 27H23.7456L20.2228 20.4659H22.2115Z" fill="#F5F5F5"/>
</svg>
