<svg width="22" height="22" viewBox="0 0 22 22" fill="none" xmlns="http://www.w3.org/2000/svg">
<path d="M18.25 15.3749H18.089C18.1926 15.0947 18.2471 14.7987 18.25 14.4999V10.1249C18.2471 8.57472 17.7301 7.06924 16.7801 5.84421C15.8301 4.61918 14.5007 3.74378 13 3.35506V3.12494C13 2.66081 12.8156 2.21569 12.4874 1.8875C12.1592 1.55931 11.7141 1.37494 11.25 1.37494C10.7859 1.37494 10.3408 1.55931 10.0126 1.8875C9.68437 2.21569 9.5 2.66081 9.5 3.12494V3.35506C7.9993 3.74378 6.66988 4.61918 5.71987 5.84421C4.76987 7.06924 4.25294 8.57472 4.25 10.1249V14.4999C4.2529 14.7987 4.30737 15.0947 4.411 15.3749H4.25C4.01794 15.3749 3.79538 15.4671 3.63128 15.6312C3.46719 15.7953 3.375 16.0179 3.375 16.2499C3.375 16.482 3.46719 16.7046 3.63128 16.8687C3.79538 17.0328 4.01794 17.1249 4.25 17.1249H18.25C18.4821 17.1249 18.7046 17.0328 18.8687 16.8687C19.0328 16.7046 19.125 16.482 19.125 16.2499C19.125 16.0179 19.0328 15.7953 18.8687 15.6312C18.7046 15.4671 18.4821 15.3749 18.25 15.3749Z" fill="#67636D"/>
<path d="M8.23648 18.875C8.53976 19.4066 8.97827 19.8486 9.50753 20.1559C10.0368 20.4633 10.6379 20.6253 11.25 20.6253C11.862 20.6253 12.4632 20.4633 12.9924 20.1559C13.5217 19.8486 13.9602 19.4066 14.2635 18.875H8.23648Z" fill="#67636D"/>
</svg>
