<svg width="24" height="24" viewBox="0 0 24 24" fill="none" xmlns="http://www.w3.org/2000/svg">
<path d="M2 2.25H22C22.1339 2.25 22.25 2.36614 22.25 2.5C22.25 2.63386 22.1339 2.75 22 2.75H2C1.86614 2.75 1.75 2.63386 1.75 2.5C1.75 2.36614 1.86614 2.25 2 2.25Z" fill="#2B5BD4" stroke="#2B5BD4"/>
<path d="M19.84 3V14.4697C19.84 15.2421 19.5004 15.9773 18.9122 16.4736L18.7911 16.5693H18.7902L13.5802 20.4697C12.7061 21.1231 11.5214 21.1637 10.6085 20.5918L10.4298 20.4697L5.21985 16.5693H5.21887C4.55671 16.0747 4.17004 15.2935 4.17004 14.4697V3H19.84ZM8.00012 11.75C7.31398 11.75 6.75012 12.3139 6.75012 13C6.75012 13.6861 7.31398 14.25 8.00012 14.25H16.0001C16.6862 14.25 17.2501 13.6861 17.2501 13C17.2501 12.3139 16.6862 11.75 16.0001 11.75H8.00012ZM8.00012 6.75C7.31398 6.75 6.75012 7.31386 6.75012 8C6.75012 8.68614 7.31398 9.25 8.00012 9.25H16.0001C16.6862 9.24996 17.2501 8.68612 17.2501 8C17.2501 7.31388 16.6862 6.75004 16.0001 6.75H8.00012Z" fill="#2B5BD4" stroke="#2B5BD4"/>
</svg>
