<svg width="24" height="24" viewBox="0 0 24 24" fill="none" xmlns="http://www.w3.org/2000/svg">
<path d="M8.25 1.75C8.38386 1.75 8.5 1.86614 8.5 2V5C8.5 5.13386 8.38386 5.25 8.25 5.25C8.11614 5.25 8 5.13386 8 5V2C8 1.86614 8.11614 1.75 8.25 1.75Z" fill="#2B5BD4" stroke="#2B5BD4"/>
<path d="M15.75 1.75C15.8839 1.75 16 1.86614 16 2V5C16 5.13386 15.8839 5.25 15.75 5.25C15.6161 5.25 15.5 5.13386 15.5 5V2C15.5 1.86614 15.6161 1.75 15.75 1.75Z" fill="#2B5BD4" stroke="#2B5BD4"/>
<path d="M12.0005 13C12.1714 13.0001 12.273 13.0479 12.3228 13.0898C12.3628 13.1237 12.3999 13.1777 12.3999 13.29C12.3999 13.396 12.3638 13.4562 12.3179 13.4961C12.2651 13.5419 12.1633 13.5898 12.0005 13.5898C11.8377 13.5898 11.736 13.5418 11.6831 13.4961C11.6371 13.4562 11.6001 13.3961 11.6001 13.29C11.6001 13.1778 11.6372 13.1237 11.6772 13.0898C11.727 13.0479 11.8293 13 12.0005 13Z" fill="#2B5BD4" stroke="#2B5BD4"/>
<path d="M11.9998 15.64C12.4529 15.64 12.6401 15.9225 12.6404 16.0697C12.6404 16.2168 12.4532 16.5004 11.9998 16.5004C11.5466 16.5002 11.3601 16.2168 11.3601 16.0697C11.3604 15.9225 11.5469 15.6401 11.9998 15.64Z" fill="#2B5BD4" stroke="#2B5BD4"/>
<path d="M19.57 4.5C18.91 4.01 17.96 4.48 17.96 5.31V5.41C17.96 6.58 17.12 7.66 15.95 7.78C14.6 7.92 13.46 6.86 13.46 5.54V4.5C13.46 3.95 13.01 3.5 12.46 3.5H11.54C10.99 3.5 10.54 3.95 10.54 4.5V5.54C10.54 6.33 10.13 7.03 9.51 7.42C9.42 7.48 9.32 7.53 9.22 7.58C9.13 7.63 9.03 7.67 8.92 7.7C8.8 7.74 8.67 7.77 8.53 7.78C8.37 7.8 8.21 7.8 8.05 7.78C7.91 7.77 7.78 7.74 7.66 7.7C7.56 7.67 7.46 7.63 7.36 7.58C7.26 7.53 7.16 7.48 7.07 7.42C6.44 6.98 6.04 6.22 6.04 5.41V5.31C6.04 4.54 5.22 4.08 4.57 4.41C4.56 4.42 4.55 4.42 4.54 4.43C4.5 4.45 4.47 4.47 4.43 4.5C4.4 4.53 4.36 4.55 4.33 4.58C4.05 4.8 3.8 5.05 3.59 5.32C3.48 5.44 3.39 5.57 3.31 5.7C3.3 5.71 3.29 5.72 3.28 5.74C3.19 5.87 3.11 6.02 3.04 6.16C3.02 6.18 3.01 6.19 3.01 6.21C2.95 6.33 2.89 6.45 2.85 6.58C2.82 6.63 2.81 6.67 2.79 6.72C2.73 6.87 2.69 7.02 2.65 7.17C2.61 7.31 2.58 7.46 2.56 7.61C2.54 7.72 2.53 7.83 2.52 7.95C2.51 8.09 2.5 8.23 2.5 8.37V17.13C2.5 19.82 4.68 22 7.37 22H16.63C19.32 22 21.5 19.82 21.5 17.13V8.37C21.5 6.78 20.74 5.39 19.57 4.5ZM12 18.25C10.45 18.25 9.5 17.48 9.5 16.24C9.5 15.56 9.85 14.97 10.46 14.62C10.02 14.31 9.73 13.85 9.73 13.22C9.73 11.92 10.77 11.25 12 11.25C13.23 11.25 14.26 11.92 14.26 13.22C14.26 13.85 13.98 14.31 13.53 14.62C14.15 14.97 14.5 15.56 14.5 16.24C14.5 17.48 13.54 18.25 12 18.25Z" fill="#2B5BD4"/>
</svg>
