<svg width="24" height="24" viewBox="0 0 24 24" fill="none" xmlns="http://www.w3.org/2000/svg">
<path d="M23.8328 20.1967L19.7897 16.1562L22.2156 13.7302C22.3528 13.593 22.4099 13.3959 22.3699 13.2044C22.327 13.0158 22.1927 12.8587 22.0099 12.7901L8.47479 7.73806C8.26335 7.66091 8.02905 7.71235 7.86904 7.86951C7.71189 8.02953 7.66046 8.26384 7.7376 8.4753L12.7893 22.0112C12.8579 22.1941 13.0151 22.3284 13.2036 22.3712C13.3922 22.4141 13.5922 22.3541 13.7294 22.2169L16.1552 19.7909L20.1955 23.8343C20.3069 23.9457 20.4526 24 20.5984 24C20.7441 24 20.8927 23.9457 21.0041 23.8343L23.8328 21.0054C24.0557 20.7796 24.0557 20.4196 23.8328 20.1967ZM20.5984 22.6198L16.5581 18.5794C16.4495 18.4736 16.3067 18.4108 16.1552 18.4108C16.001 18.4108 15.8581 18.4736 15.7495 18.5794L13.5494 20.7796L9.24626 9.24682L20.7784 13.5502L18.5782 15.7504C18.4725 15.859 18.4097 16.0019 18.4097 16.1562C18.4097 16.3077 18.4725 16.4505 18.5782 16.5591L22.6185 20.5996L20.5984 22.6198ZM8.00048 4.57197V0.571497C8.00048 0.257173 8.25763 0 8.57194 0C8.88624 0 9.1434 0.257173 9.1434 0.571497V4.57197C9.1434 4.8863 8.88624 5.14347 8.57194 5.14347C8.25763 5.14347 8.00048 4.8863 8.00048 4.57197ZM4.5717 9.14395H0.571463C0.257158 9.14395 0 8.88677 0 8.57245C0 8.25813 0.257158 8.00095 0.571463 8.00095H4.5717C4.886 8.00095 5.14316 8.25813 5.14316 8.57245C5.14316 8.88677 4.886 9.14395 4.5717 9.14395ZM10.9978 6.14645C10.7749 5.92356 10.7749 5.56066 10.9978 5.33778L13.8265 2.50887C14.0494 2.28599 14.4123 2.28599 14.6352 2.50887C14.858 2.73175 14.858 3.09465 14.6352 3.31754L11.8064 6.14645C11.695 6.25789 11.5493 6.31504 11.4035 6.31504C11.2578 6.31504 11.1092 6.26075 10.9978 6.14645ZM6.14608 10.9985C6.36895 11.2213 6.36895 11.5842 6.14608 11.8071L3.31734 14.636C3.20591 14.7475 3.06018 14.8046 2.91446 14.8046C2.76874 14.8046 2.62301 14.7475 2.51158 14.636C2.28871 14.4131 2.28871 14.0502 2.51158 13.8274L5.34032 10.9985C5.56319 10.7727 5.92321 10.7727 6.14608 10.9985ZM6.14608 5.34064C6.36895 5.56352 6.36895 5.92642 6.14608 6.1493C6.03464 6.26075 5.88892 6.31789 5.7432 6.31789C5.59748 6.31789 5.45175 6.26075 5.34032 6.1493L2.51158 3.3204C2.28871 3.09751 2.28871 2.73461 2.51158 2.51173C2.73445 2.28884 3.09733 2.28884 3.3202 2.51173L6.14608 5.34064Z" fill="white"/>
</svg>
