<svg width="24" height="24" viewBox="0 0 24 24" fill="none" xmlns="http://www.w3.org/2000/svg">
<path d="M3.23047 1.5H11.3604C11.7562 1.50019 12.0898 1.82836 12.0898 2.25V3.62012C12.0898 3.7762 12.0382 3.98364 11.9404 4.19922C11.8443 4.41108 11.7218 4.58737 11.6191 4.69141L8.99512 7.05859C8.73825 7.27882 8.54956 7.58113 8.4248 7.88184C8.29676 8.19066 8.21973 8.53636 8.21973 8.86035V11.54C8.21972 11.6249 8.18691 11.7637 8.1123 11.9092C8.05524 12.0205 7.99335 12.0986 7.94531 12.1436L7.90234 12.1777L7.89551 12.1816L7.03516 12.7461C6.55219 13.0479 5.88991 12.6986 5.88965 12.1104V8.7998C5.88961 8.49486 5.80607 8.17966 5.7002 7.91211C5.61989 7.70919 5.51847 7.51208 5.4082 7.34277L5.29492 7.18359L5.28125 7.16504L5.26465 7.14844L2.9248 4.64844L2.91309 4.63672L2.83594 4.54883C2.75849 4.45144 2.68223 4.32545 2.62012 4.1875C2.53513 3.99864 2.5 3.83865 2.5 3.75V2.30957C2.5002 1.81244 2.84967 1.5 3.23047 1.5Z" fill="#2B5BD4" stroke="#2B5BD4"/>
<path d="M17 2.5C19.4839 2.5 21.5 4.51614 21.5 7V17C21.5 19.4839 19.4839 21.5 17 21.5H7C4.51614 21.5 2.5 19.4839 2.5 17V9.21777L3.49609 10.2139L3.5 10.2168V12.4375C3.5 12.7137 3.52493 13.0364 3.64355 13.3516L3.7002 13.4863C3.94695 14.0109 4.33229 14.4693 4.83496 14.8027L5.05762 14.9375L5.05957 14.9385C5.5501 15.2071 6.09248 15.3495 6.63965 15.3496C7.16697 15.3496 7.6946 15.2231 8.18066 14.9629L8.38672 14.8428L8.3916 14.8398L9.19922 14.3164L9.2002 14.3174C10.0978 13.7714 10.7197 12.6142 10.7197 11.54V8.89551C10.7275 8.87866 10.7336 8.86031 10.7432 8.83984L13.3828 6.48242L13.3955 6.47168L13.4072 6.45996C13.9974 5.85825 14.5996 4.76853 14.5996 3.62012V2.5H17ZM11 15.75C10.3139 15.75 9.75 16.3139 9.75 17C9.75 17.6861 10.3139 18.25 11 18.25H18C18.6861 18.25 19.25 17.6861 19.25 17C19.25 16.3139 18.6861 15.75 18 15.75H11ZM13 11.75C12.3139 11.75 11.75 12.3139 11.75 13C11.75 13.6861 12.3139 14.25 13 14.25H18C18.6861 14.25 19.25 13.6861 19.25 13C19.25 12.3139 18.6861 11.75 18 11.75H13Z" fill="#2B5BD4" stroke="#2B5BD4"/>
</svg>
