<svg width="24" height="24" viewBox="0 0 24 24" fill="none" xmlns="http://www.w3.org/2000/svg">
<g clip-path="url(#clip0_364_6763)">
<path d="M11.9999 15.507C11.4499 15.507 10.8989 15.343 10.4189 15.014L2.21789 9.40302C2.11366 9.32615 2.04331 9.21184 2.02168 9.08414C2.00004 8.95645 2.02879 8.82535 2.10189 8.71843C2.17498 8.61152 2.2867 8.53713 2.41354 8.51094C2.54038 8.48475 2.67243 8.5088 2.78189 8.57802L10.9829 14.189C11.2818 14.3952 11.6363 14.5056 11.9994 14.5056C12.3625 14.5056 12.717 14.3952 13.0159 14.189L21.2169 8.57802C21.271 8.53996 21.3322 8.51303 21.3968 8.49878C21.4614 8.48454 21.5282 8.48326 21.5934 8.49503C21.6585 8.5068 21.7206 8.53138 21.7762 8.56734C21.8317 8.60331 21.8796 8.64994 21.917 8.70454C21.9544 8.75914 21.9805 8.82062 21.994 8.88541C22.0075 8.95021 22.0079 9.01703 21.9953 9.082C21.9828 9.14697 21.9574 9.2088 21.9208 9.26391C21.8842 9.31901 21.8369 9.3663 21.7819 9.40302L13.5809 15.014C13.1159 15.3345 12.5646 15.5064 11.9999 15.507Z" fill="white"/>
<path d="M21.5 23.49H2.50001C1.83721 23.4892 1.20179 23.2256 0.733117 22.7569C0.264448 22.2882 0.000801351 21.6528 7.42188e-06 20.99V9.07802C-0.00101175 8.66055 0.102949 8.24953 0.30233 7.88274C0.50171 7.51596 0.79011 7.20519 1.14101 6.97902L10.373 0.998021C11.321 0.349021 12.668 0.342021 13.637 1.00502L22.859 6.98002C23.21 7.2059 23.4984 7.51646 23.6978 7.8831C23.8972 8.24974 24.0011 8.66067 24 9.07802V20.99C24 22.369 22.878 23.49 21.5 23.49ZM12 1.49802C11.616 1.49802 11.245 1.61302 10.927 1.83002L1.68501 7.81902C1.47439 7.95457 1.30125 8.14093 1.18155 8.36095C1.06184 8.58096 0.999414 8.82755 1.00001 9.07802V20.99C1.00001 21.817 1.67301 22.49 2.50001 22.49H21.5C22.327 22.49 23 21.817 23 20.99V9.07802C23 8.56702 22.744 8.09702 22.315 7.81902L13.083 1.83702C12.7648 1.61662 12.3871 1.49838 12 1.49802Z" fill="white"/>
<path d="M2.50003 21.49C2.39699 21.4904 2.29634 21.459 2.21184 21.4C2.12735 21.341 2.06315 21.2574 2.02801 21.1605C1.99288 21.0636 1.98853 20.9583 2.01556 20.8588C2.04259 20.7594 2.09969 20.6708 2.17903 20.605L8.17903 15.605C8.22952 15.5629 8.28781 15.5312 8.35057 15.5116C8.41332 15.4921 8.47932 15.4851 8.54478 15.491C8.61025 15.4969 8.6739 15.5157 8.73211 15.5463C8.79032 15.5768 8.84194 15.6185 8.88403 15.669C8.92612 15.7195 8.95785 15.7778 8.97741 15.8406C8.99697 15.9033 9.00398 15.9693 8.99804 16.0348C8.9921 16.1002 8.97332 16.1639 8.94277 16.2221C8.91223 16.2803 8.87052 16.3319 8.82003 16.374L2.82003 21.374C2.73034 21.4491 2.61702 21.4902 2.50003 21.49ZM21.5 21.49C21.3831 21.49 21.2698 21.449 21.18 21.374L15.18 16.374C15.0781 16.289 15.014 16.167 15.002 16.0348C14.99 15.9026 15.031 15.771 15.116 15.669C15.201 15.567 15.3231 15.503 15.4553 15.491C15.5875 15.479 15.7191 15.52 15.821 15.605L21.821 20.605C21.9004 20.6708 21.9575 20.7594 21.9845 20.8588C22.0115 20.9583 22.0072 21.0636 21.972 21.1605C21.9369 21.2574 21.8727 21.341 21.7882 21.4C21.7037 21.459 21.6031 21.4904 21.5 21.49Z" fill="white"/>
</g>
<defs>
<clipPath id="clip0_364_6763">
<rect width="24" height="24" fill="white"/>
</clipPath>
</defs>
</svg>
