<svg width="15" height="16" viewBox="0 0 15 16" fill="none" xmlns="http://www.w3.org/2000/svg">
<path d="M14.6247 13.8889L11.787 11.0512C12.647 9.92535 13.1187 8.55977 13.1189 7.11877C13.1189 5.38223 12.4425 3.74951 11.2144 2.52161C9.98652 1.2937 8.35402 0.617371 6.61726 0.617371C4.88072 0.617371 3.248 1.2937 2.02009 2.52161C-0.514755 5.05667 -0.514755 9.18131 2.02009 11.7159C3.248 12.9441 4.88072 13.6204 6.61726 13.6204C8.05825 13.6202 9.42384 13.1485 10.5497 12.2885L13.3874 15.1262C13.5581 15.2971 13.7822 15.3826 14.0061 15.3826C14.2299 15.3826 14.454 15.2971 14.6247 15.1262C14.9665 14.7846 14.9665 14.2305 14.6247 13.8889ZM3.2574 10.4786C1.40486 8.6261 1.40507 5.61166 3.2574 3.75891C4.15483 2.86169 5.34813 2.36737 6.61726 2.36737C7.88661 2.36737 9.07969 2.86169 9.97712 3.75891C10.8746 4.65634 11.3689 5.84964 11.3689 7.11877C11.3689 8.38812 10.8746 9.58121 9.97712 10.4786C9.07969 11.3761 7.88661 11.8704 6.61726 11.8704C5.34813 11.8704 4.15483 11.3761 3.2574 10.4786Z" fill="#5A5A5A"/>
</svg>
