<svg width="25" height="24" viewBox="0 0 25 24" fill="none" xmlns="http://www.w3.org/2000/svg">
<path d="M18.1056 1H6.08931C4.76191 1.00159 3.48934 1.52888 2.55073 2.46622C1.61212 3.40356 1.08411 4.67441 1.08252 6V14C1.08398 15.1522 1.48315 16.2687 2.21277 17.1613C2.94239 18.0538 3.95783 18.6679 5.08795 18.9V22C5.08792 22.181 5.13711 22.3587 5.23027 22.514C5.32343 22.6693 5.45706 22.7965 5.6169 22.8819C5.77675 22.9673 5.95682 23.0078 6.13789 22.999C6.31897 22.9902 6.49426 22.9325 6.64506 22.832L12.3979 19H18.1056C19.433 18.9984 20.7056 18.4711 21.6442 17.5338C22.5828 16.5964 23.1108 15.3256 23.1124 14V6C23.1108 4.67441 22.5828 3.40356 21.6442 2.46622C20.7056 1.52888 19.433 1.00159 18.1056 1ZM16.1029 13H8.09202C7.82645 13 7.57175 12.8946 7.38396 12.7071C7.19617 12.5196 7.09067 12.2652 7.09067 12C7.09067 11.7348 7.19617 11.4804 7.38396 11.2929C7.57175 11.1054 7.82645 11 8.09202 11H16.1029C16.3685 11 16.6232 11.1054 16.811 11.2929C16.9987 11.4804 17.1042 11.7348 17.1042 12C17.1042 12.2652 16.9987 12.5196 16.811 12.7071C16.6232 12.8946 16.3685 13 16.1029 13ZM18.1056 9H6.08931C5.82373 9 5.56903 8.89464 5.38124 8.70711C5.19345 8.51957 5.08795 8.26522 5.08795 8C5.08795 7.73478 5.19345 7.48043 5.38124 7.29289C5.56903 7.10536 5.82373 7 6.08931 7H18.1056C18.3712 7 18.6259 7.10536 18.8137 7.29289C19.0015 7.48043 19.107 7.73478 19.107 8C19.107 8.26522 19.0015 8.51957 18.8137 8.70711C18.6259 8.89464 18.3712 9 18.1056 9Z" fill="#2B5BD4"/>
</svg>
