<svg width="25" height="24" viewBox="0 0 25 24" fill="none" xmlns="http://www.w3.org/2000/svg">
<g clip-path="url(#clip0_364_8804)">
<path d="M22.5729 16.95C22.5113 16.9013 18.0405 13.683 16.8133 13.914C16.2276 14.0175 15.8926 14.4165 15.2204 15.2153C15.1123 15.3443 14.8524 15.6532 14.6504 15.873C14.2256 15.7346 13.8113 15.5662 13.4105 15.369C11.3418 14.3633 9.67041 12.6941 8.6633 10.6283C8.46568 10.2281 8.29702 9.81425 8.15861 9.39C8.37941 9.1875 8.68883 8.928 8.82101 8.817C9.61709 8.1495 10.0174 7.815 10.121 7.2285C10.3336 6.0135 7.11319 1.518 7.0794 1.4775C6.93329 1.26905 6.7426 1.09565 6.52115 0.969827C6.29969 0.844008 6.053 0.768921 5.79891 0.75C4.49364 0.75 0.76709 5.57775 0.76709 6.39075C0.76709 6.438 0.835433 11.241 6.76622 17.2658C12.7931 23.1817 17.6019 23.25 17.6492 23.25C18.4641 23.25 23.2976 19.5285 23.2976 18.225C23.2789 17.9722 23.2042 17.7266 23.0788 17.5061C22.9535 17.2856 22.7807 17.0957 22.5729 16.95Z" fill="#2B5BD4"/>
</g>
<defs>
<clipPath id="clip0_364_8804">
<rect width="24.0326" height="24" fill="white" transform="translate(0.0161133)"/>
</clipPath>
</defs>
</svg>
