<svg width="24" height="24" viewBox="0 0 24 24" fill="none" xmlns="http://www.w3.org/2000/svg">
<path d="M14.1699 3.64612C14.4835 3.11908 15.1328 2.9214 15.6602 3.16467L15.7646 3.21936L15.7715 3.22424L17.502 4.21448C18.1277 4.57216 18.3699 5.3443 18.0811 5.99377L18.0156 6.1217C17.5128 6.99909 17.4074 7.9107 17.8262 8.6344C18.2451 9.35818 19.088 9.72024 20.0996 9.72034C20.8226 9.72034 21.4226 10.2777 21.501 10.9821L21.5098 11.1246V12.8805C21.5095 13.6523 20.8756 14.2797 20.1104 14.2799C19.0988 14.2799 18.2547 14.6419 17.8369 15.3668C17.4452 16.0467 17.5176 16.8907 17.9473 17.7164L18.0371 17.8805C18.3951 18.5005 18.216 19.2969 17.6416 19.7086L17.5215 19.7858L15.792 20.776L15.7842 20.7799C15.2751 21.0828 14.6133 20.9382 14.2568 20.4557L14.1895 20.3541L14.083 20.1696C13.5748 19.2927 12.8375 18.7428 12.001 18.7428C11.2162 18.7429 10.5218 19.2266 10.0234 20.0104L9.92578 20.1715L9.82031 20.3541C9.50657 20.8815 8.85667 21.0785 8.3291 20.8346L8.22559 20.7799L8.21875 20.776L6.48828 19.7858L6.36816 19.7086C5.79421 19.298 5.61426 18.5093 5.97461 17.8785L5.97363 17.8776C6.48059 17.0014 6.59021 16.0911 6.17285 15.3668C5.75513 14.642 4.91173 14.28 3.90039 14.2799C3.12839 14.2799 2.50024 13.6459 2.5 12.8805V11.1198C2.50017 10.3477 3.13492 9.72034 3.90039 9.72034C4.91157 9.72024 5.75502 9.35847 6.17285 8.63538C6.59047 7.91244 6.48081 7.00409 5.97363 6.13245H5.97461C5.61354 5.50058 5.79466 4.70174 6.36816 4.29065L6.48828 4.21448L8.21875 3.22424L8.22559 3.21936C8.73774 2.91475 9.39424 3.06538 9.73242 3.5387L9.7959 3.63733L9.79688 3.64026L9.90723 3.83069C10.4154 4.7074 11.1519 5.25724 11.9883 5.25745C12.825 5.25745 13.5592 4.70754 14.0625 3.83069L14.1699 3.64612ZM12 8.24963C9.934 8.24963 8.25023 9.93369 8.25 11.9996C8.25 14.0658 9.93386 15.7496 12 15.7496C14.0661 15.7496 15.75 14.0658 15.75 11.9996C15.7498 9.93369 14.066 8.24963 12 8.24963Z" fill="#2B5BD4" stroke="#2B5BD4"/>
</svg>
