<svg width="18" height="18" viewBox="0 0 18 18" fill="none" xmlns="http://www.w3.org/2000/svg">
<path d="M16.5 7.57502C16.575 7.20002 16.275 6.75001 15.9 6.75001L11.625 6.15001L9.675 2.25001C9.6 2.10001 9.525 2.02501 9.375 1.95001C9 1.72501 8.55 1.87501 8.325 2.25001L6.45 6.15001L2.175 6.75001C1.95 6.75001 1.8 6.82502 1.725 6.97502C1.425 7.27501 1.425 7.72501 1.725 8.02501L4.8 11.025L4.05 15.3C4.05 15.45 4.05 15.6 4.125 15.75C4.35 16.125 4.8 16.275 5.175 16.05L9 14.025L12.825 16.05C12.9 16.125 13.05 16.125 13.2 16.125C13.275 16.125 13.275 16.125 13.35 16.125C13.725 16.05 14.025 15.675 13.95 15.225L13.2 10.95L16.275 7.95002C16.425 7.87501 16.5 7.72502 16.5 7.57502Z" fill="#FF9736"/>
</svg>
