<svg width="24" height="24" viewBox="0 0 24 24" fill="none" xmlns="http://www.w3.org/2000/svg">
<path d="M12.37 8.62H17.62C17.7539 8.62 17.87 8.73614 17.87 8.87C17.87 9.00821 17.7595 9.12 17.62 9.12H12.37C12.2361 9.12 12.12 9.00385 12.12 8.87C12.12 8.73614 12.2361 8.62 12.37 8.62Z" fill="#999999" stroke="#999999"/>
<path d="M9.19385 7.2038C9.28859 7.10906 9.45165 7.10906 9.54639 7.2038C9.62928 7.28675 9.63992 7.42222 9.57764 7.51825L9.54639 7.55634L7.29639 9.80634C7.24908 9.85364 7.18551 9.87958 7.11963 9.87958C7.07141 9.8795 7.02545 9.86732 6.98389 9.83954L6.94385 9.80634L6.19385 9.05634C6.09911 8.9616 6.09911 8.79853 6.19385 8.7038C6.27681 8.62084 6.41225 8.61021 6.5083 8.67255L6.54639 8.7038L7.11963 9.27704L7.47314 8.92352L9.19385 7.2038Z" fill="#999999" stroke="#999999"/>
<path d="M17.62 16.62H12.37C11.96 16.62 11.62 16.28 11.62 15.87C11.62 15.46 11.96 15.12 12.37 15.12H17.62C18.03 15.12 18.37 15.46 18.37 15.87C18.37 16.28 18.04 16.62 17.62 16.62Z" fill="#999999"/>
<path d="M7.12006 17.38C6.93006 17.38 6.74006 17.31 6.59006 17.16L5.84006 16.41C5.55006 16.12 5.55006 15.64 5.84006 15.35C6.13006 15.06 6.61006 15.06 6.90006 15.35L7.12006 15.57L8.84006 13.85C9.13006 13.56 9.61006 13.56 9.90006 13.85C10.1901 14.14 10.1901 14.62 9.90006 14.91L7.65006 17.16C7.51006 17.3 7.32006 17.38 7.12006 17.38Z" fill="#999999"/>
<path d="M15 22.75H9C3.57 22.75 1.25 20.43 1.25 15V9C1.25 3.57 3.57 1.25 9 1.25H15C20.43 1.25 22.75 3.57 22.75 9V15C22.75 20.43 20.43 22.75 15 22.75ZM9 2.75C4.39 2.75 2.75 4.39 2.75 9V15C2.75 19.61 4.39 21.25 9 21.25H15C19.61 21.25 21.25 19.61 21.25 15V9C21.25 4.39 19.61 2.75 15 2.75H9Z" fill="#999999"/>
</svg>
