<svg width="24" height="24" viewBox="0 0 24 24" fill="none" xmlns="http://www.w3.org/2000/svg">
<path d="M9 2.5C11.3439 2.5 13.25 4.40614 13.25 6.75C13.24 9.05196 11.4419 10.9097 9.15234 10.9902H9.12402C9.04482 10.9818 8.96348 10.9833 8.88672 10.9893C6.53765 10.9032 4.75 9.04362 4.75 6.75C4.75 4.40614 6.65614 2.5 9 2.5Z" fill="#2B5BD4" stroke="#2B5BD4"/>
<path d="M9.0127 13.255C10.6639 13.255 12.2901 13.6483 13.5547 14.4093L13.8027 14.5656C14.8867 15.2882 15.4582 16.2129 15.5322 17.172L15.54 17.3644C15.5385 18.3308 15.0294 19.2688 14.0107 20.0265L13.8008 20.1749C12.4999 21.0482 10.7628 21.5001 9 21.5001C7.3472 21.5001 5.71651 21.1035 4.44727 20.3341L4.19824 20.1749L4.19727 20.174L3.98633 20.0265C2.96805 19.2763 2.45996 18.3378 2.45996 17.38C2.45996 16.3576 3.03905 15.3479 4.20801 14.5656L4.20703 14.5646C5.5135 13.7005 7.25236 13.255 9.0127 13.255Z" fill="#2B5BD4" stroke="#2B5BD4"/>
<path d="M16.1531 4.56729C17.7857 4.42568 19.2514 5.60152 19.4744 7.22452L19.4919 7.38272C19.6285 9.04846 18.4523 10.5 16.8269 10.7099H16.8103C16.7843 10.7099 16.6845 10.7056 16.5701 10.7304C15.9446 10.7546 15.366 10.6087 14.8787 10.33C15.6864 9.40438 16.1524 8.18542 16.1238 6.86905L16.1082 6.56046V6.55655L16.0681 6.22354C15.9832 5.66962 15.8092 5.14972 15.5671 4.67471C15.7549 4.62214 15.9526 4.5862 16.1541 4.56827L16.1531 4.56729Z" fill="#2B5BD4" stroke="#2B5BD4"/>
<path d="M15.6511 13.0152C17.2265 12.9203 18.8822 13.3083 20.071 14.1227L20.3757 14.3492H20.3767C21.1526 14.9733 21.5163 15.6975 21.5007 16.4029L21.4919 16.5435V16.5484C21.433 17.2629 21.0012 17.9315 20.1794 18.4332L20.0095 18.5318H20.0085C19.3887 18.8727 18.6471 19.0926 17.864 19.191C18.1627 18.7196 18.3586 18.2039 18.4363 17.6627L18.4578 17.4762L18.4587 17.4703C18.5678 16.1176 17.9632 14.8561 16.8357 13.857L16.6033 13.6607L16.6003 13.6578L16.3259 13.4508C16.1098 13.2949 15.884 13.1506 15.6511 13.0152Z" fill="#2B5BD4" stroke="#2B5BD4"/>
</svg>
